<mxfile host="app.diagrams.net" modified="2022-02-15T03:01:29.888Z" agent="5.0 (Macintosh; Intel Mac OS X 10_15_6) AppleWebKit/537.36 (KHTML, like Gecko) Chrome/96.0.4664.55 Safari/537.36" etag="NdIaoagrOY763zLQBn9r" version="16.5.6" type="github">
  <diagram id="LrDT-2fnjlLrGnoS8Kym" name="Page-1">
    <mxGraphModel dx="903" dy="570" grid="1" gridSize="10" guides="1" tooltips="1" connect="1" arrows="1" fold="1" page="1" pageScale="1" pageWidth="826" pageHeight="1169" math="0" shadow="0">
      <root>
        <mxCell id="0" />
        <mxCell id="1" parent="0" />
        <mxCell id="NIo4wRNYglLKpnFKmgiN-1" value="redis" style="shape=cylinder3;whiteSpace=wrap;html=1;boundedLbl=1;backgroundOutline=1;size=15;" vertex="1" parent="1">
          <mxGeometry x="100" y="120" width="60" height="60" as="geometry" />
        </mxCell>
        <mxCell id="NIo4wRNYglLKpnFKmgiN-2" value="mysql" style="shape=cylinder3;whiteSpace=wrap;html=1;boundedLbl=1;backgroundOutline=1;size=15;" vertex="1" parent="1">
          <mxGeometry x="100" y="190" width="60" height="60" as="geometry" />
        </mxCell>
        <mxCell id="NIo4wRNYglLKpnFKmgiN-3" value="ODPS" style="shape=cylinder3;whiteSpace=wrap;html=1;boundedLbl=1;backgroundOutline=1;size=15;" vertex="1" parent="1">
          <mxGeometry x="100" y="260" width="60" height="60" as="geometry" />
        </mxCell>
        <mxCell id="NIo4wRNYglLKpnFKmgiN-4" value="MetaQ" style="shape=cylinder3;whiteSpace=wrap;html=1;boundedLbl=1;backgroundOutline=1;size=15;" vertex="1" parent="1">
          <mxGeometry x="100" y="330" width="60" height="60" as="geometry" />
        </mxCell>
        <mxCell id="NIo4wRNYglLKpnFKmgiN-5" value="TT" style="shape=cylinder3;whiteSpace=wrap;html=1;boundedLbl=1;backgroundOutline=1;size=15;" vertex="1" parent="1">
          <mxGeometry x="100" y="400" width="60" height="60" as="geometry" />
        </mxCell>
      </root>
    </mxGraphModel>
  </diagram>
</mxfile>
